# xmcd CD database file
#
# Track frame offsets:
#	150
#	12273
#	24125
#	35780
#	48435
#	62507
#	76111
#	89775
#	104200
#	118330
#	131129
#	144088
#	157870
#	170582
#	184079
#	200610
#	207920
#	222002
#	234704
#	257076
#
# Disc length: 3696 seconds
#
# Revision: 0
# Processed by: cddbd v1.5.2PL0 Copyright (c) Steve Scherf et al.
# Submitted via: CDex 1.70beta2
#
DISCID=1e0e6e14
DTITLE=Fats Navarro - Bebop Story Vol 35 1947-48 CD 035
DYEAR=2008
DGENRE=Jazz
TTITLE0=Nostalgia
TTITLE1=Barry's Bop
TTITLE2=Bebop Romp
TTITLE3=Fats Blows
TTITLE4=April In Paris
TTITLE5=How Strange
TTITLE6=Half Step Down Please
TTITLE7=Angel Face
TTITLE8=Jumpin' Jane
TTITLE9=I Love You
TTITLE10=Dexter's Mood
TTITLE11=Dextrose
TTITLE12=Index
TTITLE13=Dextivity
TTITLE14=Anthropology
TTITLE15=Kitchenette Across The Hall
TTITLE16=Lady Be Good
TTITLE17=The Squirrel
TTITLE18=Good Bait
TTITLE19=Pennies From Heaven
EXTD=YEAR: 2008
EXTT0=
EXTT1=
EXTT2=
EXTT3=
EXTT4=
EXTT5=
EXTT6=
EXTT7=
EXTT8=
EXTT9=
EXTT10=
EXTT11=
EXTT12=
EXTT13=
EXTT14=
EXTT15=
EXTT16=
EXTT17=
EXTT18=
EXTT19=
PLAYORDER=
